<?xml version="1.0" standalone="no"?>
<!DOCTYPE svg PUBLIC "-//W3C//DTD SVG 20010904//EN"
 "http://www.w3.org/TR/2001/REC-SVG-20010904/DTD/svg10.dtd">
<svg version="1.0" xmlns="http://www.w3.org/2000/svg"
 width="142.000000pt" height="142.000000pt" viewBox="0 0 142.000000 142.000000"
 preserveAspectRatio="xMidYMid meet">
<metadata>
Created by potrace 1.14, written by Peter Selinger 2001-2017
</metadata>
<g transform="translate(0.000000,142.000000) scale(0.100000,-0.100000)"
fill="#000000" stroke="none">
<path d="M630 1411 c0 -4 -13 -6 -30 -3 -19 3 -30 0 -30 -7 0 -7 -4 -10 -9 -7
-22 14 -231 -73 -231 -97 0 -6 -3 -8 -6 -4 -8 7 -37 -16 -104 -84 -66 -67 -81
-85 -106 -130 -10 -19 -23 -37 -27 -40 -5 -3 -8 -9 -7 -13 0 -3 -9 -28 -20
-54 -12 -26 -19 -55 -16 -64 2 -10 1 -16 -4 -13 -13 8 -33 -151 -27 -222 6
-73 14 -119 24 -143 3 -8 7 -23 8 -33 1 -11 6 -22 11 -25 5 -4 11 -16 12 -27
5 -24 45 -97 80 -145 26 -36 132 -144 132 -135 0 3 12 -6 28 -20 31 -30 158
-94 193 -97 13 -2 26 -6 29 -10 7 -9 64 -18 159 -25 67 -5 82 -3 76 7 -6 9 -4
11 6 4 13 -8 39 -8 84 1 11 2 20 4 20 5 0 1 9 3 20 5 47 9 154 59 148 69 -3 6
-2 8 2 4 5 -5 28 4 53 18 59 35 82 56 75 67 -3 6 -2 7 4 4 10 -6 80 63 109
109 10 16 21 31 25 34 14 11 75 153 84 197 2 10 8 37 13 61 14 62 7 227 -13
297 -19 64 -62 167 -75 175 -4 3 -15 20 -25 39 -53 105 -311 294 -352 259 -11
-9 -13 -8 -11 2 2 8 -14 19 -42 27 -49 15 -260 27 -260 14z m345 -91 c3 -6 -1
-7 -9 -4 -18 7 -21 14 -7 14 6 0 13 -4 16 -10z m-11 -158 c3 -5 -1 -9 -9 -9
-8 0 -12 4 -9 9 3 4 7 8 9 8 2 0 6 -4 9 -8z m-853 -219 c13 -16 12 -17 -3 -4
-10 7 -18 15 -18 17 0 8 8 3 21 -13z m1263 -241 c3 -5 -1 -9 -9 -9 -8 0 -12 4
-9 9 3 4 7 8 9 8 2 0 6 -4 9 -8z m-1124 -162 c0 -5 -5 -10 -11 -10 -5 0 -7 5
-4 10 3 6 8 10 11 10 2 0 4 -4 4 -10z m-20 -64 c0 -2 -8 -10 -17 -17 -16 -13
-17 -12 -4 4 13 16 21 21 21 13z m817 -91 c0 -8 -4 -12 -9 -9 -5 3 -6 10 -3
15 9 13 12 11 12 -6z m74 -32 c13 -16 12 -17 -3 -4 -10 7 -18 15 -18 17 0 8 8
3 21 -13z m4 -121 c-3 -3 -11 0 -18 7 -9 10 -8 11 6 5 10 -3 15 -9 12 -12z
m-560 -11 c3 -5 2 -12 -3 -15 -5 -3 -9 1 -9 9 0 17 3 19 12 6z"/>
</g>
</svg>
